<svg xmlns="http://www.w3.org/2000/svg" viewBox="0 0 1249.03 1500"><defs><style>.cls-1{fill:#0054ff;}</style></defs><title>Recurso 1</title><g id="Capa_2" data-name="Capa 2"><g id="Workflow"><path class="cls-1" d="M604.09,0c29.68,9.93,34.17,19.67,24.32,50.23-4.22,13.09-12.57,23.75-18,37,9.4-6.37,19.18-12.25,28.1-19.23,13.5-10.56,29.48-14.87,45.51-18.28,15.4-3.27,31,13.6,27.88,29.11C710,88.51,705.27,96.64,698.23,104c-19.69,20.56-38.69,41.79-56.25,60.89,6.91-.21,16.49-6.53,26.35-10.33,11.8-4.53,24-7.62,35.87-11.53,21.6-7.1,32.32-1.78,41.31,19.43,3.18,7.52,4.45,11.65,13.46,4.77,20.4-15.57,41.48-8.25,49.68,16.75,2,5.92,3.92,6.45,9.15,4.82A580.47,580.47,0,0,1,940,164.22c40-3.49,80.34-6.47,120.67-4.07,13.83.82,25.49,13.15,25.29,25.49s-12,25-25.93,24.7c-31.13-.76-62,3.16-93.07,3.27-21.92.08-43.2,4.42-64.76,7.66-33.74,5.08-66.08,14.63-98.35,24.85-18.28,5.8-34.73,2.11-49.32-9.29-7.43-5.81-12.37-5.12-20.52-.48-16.24,9.25-31,21.44-50.22,25.41-11.88,2.47-22.37-.34-32.08-5.81-12.44-7-14.83-18-9.12-36.78-16.68,5.21-32.67,10-48.54,15.2a57.22,57.22,0,0,1-40-1.37c-9.87-4-18.54-3-28.12-.73-16.73,4-33,2.3-47.08-8.22-5.71-4.28-10.21-3.71-16-1.11-37,16.75-74.16,33.28-111.24,49.9-28,12.57-55.92,11-82.77-2.66-8.79-4.46-13.9-3.17-20.41,2.94-14.41,13.51-32.33,17-51.14,14.37-9.39-1.3-17.1.92-25.05,4.95-16,8.07-31.47,17.45-50.32,17.53-32.52.14-50.62-28.72-37.4-58,18.22-40.27,44.74-74.81,73.19-107.84,14.36-16.68,34.22-26.9,50.74.28,3.46,5.68,5.7,4.36,9.63.28,10-10.41,17.49-23.33,30.49-30.92,4.2-2.46,8.55-7,12.94-5.8,20.15,5.72,26.34-10.55,36-21.59,12.8-14.67,25.92-28.87,43.92-37.59,23.82-11.55,46.64-13.87,66.62,7.08,7.24,7.6,11.8,6.09,19-.44,19.76-18,40.21-34.81,68.25-39.26,18.47-2.94,28.64.52,35.5,18.27,3.12,8.06,4.9,7,10.67,2.76,16.31-12,28.52-29.39,48-37.25ZM472.63,83.13c-19.07,15.52-42.8,26.76-51.1,52.85-6.33,19.91-14.85,38.59-29.61,53.93-1.28,1.33-4.94,4-1,7.27C430.13,167.93,452.79,126.77,472.63,83.13Zm-143.69,98.7,3.22,1.55c12.57-26,25.8-51.65,41.81-75.68,1.45-2.17,1.64-5.61,1.41-8.37-.51-6-3.83-8.72-9.94-6.67-12,4-20.11,13-27.9,22.35-5.44,6.51-1.17,12.66.78,19,1.3,4.22.3,8.53-.83,12.84C334.45,158.46,331.77,170.16,328.94,181.83Z"/><path class="cls-1" d="M0,659.53c23.12-35.24,40.35-73.74,61-110.38,1.77-3.15,3.69-5.67,7.37-6.37,43.86-8.27,85.34-25,128.36-36.37,29-7.67,56.93-19.35,85.56-28.54,42.15-13.53,85.8-19.35,129.72-23,9.38-.79,14.35-1.87,8.9-12.41-1.74-3.35-2.1-7.44-2.95-11.22-2.41-10.65-.18-19.68,10.62-24.14,10.33-4.27,18.73-1.21,25,8.34,19.1,29,32.67,61,49.26,91.4,6.17,11.28,5.35,24.79-7,34-5.54,4.14-6.1,10.87-9,16.36-3.69,7.09-9,12.52-16.82,11.93-20-1.5-39.68-6.43-55.42-19-8.09-6.48-15.45-7.76-24-5.71-31.5,7.59-62.81,15.75-94.9,21-37.67,6.19-75.49,12.74-112.3,22.64C150.2,597,116.54,603.45,83,610.56c-5.54,1.18-8.24,5-10.78,9-10.42,16.31-22,31.95-29.87,49.79-7.53,17-31.17,25.17-42.3,4.76Z"/><path class="cls-1" d="M1249,496.11c-12.93,16.38-24.21,16.45-37.47.42-8.67-10.46-19.75-18.72-27.44-30.15-1.41-2.11-4.69-3.66-7.34-4.14-34.47-6.16-69-9.56-104-4-14.36,2.27-29,.94-43.53,2.54-47,5.16-93.23,16.59-140.64,18.19-19.19.64-35,11-52.56,16.17-5.53,1.64-5.57,6.94-7.23,11.56-5.56,15.48-15.37,26.69-27.61,25.36-15.37-1.68-27.07-9.56-29.52-26.83-4-28.25-10.49-56.28-10.48-85,0-20.3,7.34-30.29,23.37-36,12.84-4.56,23.33-2.15,30,9.79,3.82,6.82,8.48,6.64,14.51,5.11,50.73-12.89,102.41-13.93,154.44-15.26,43.71-1.12,87,2.64,130.5,3.25,15.43.22,30.45-.6,45.81,3.13,16,3.89,29,10.44,37.23,25.1,13.84,24.79,37,42.26,52,66.18Z"/><path class="cls-1" d="M697.47,1500c-10-6.66-19.8-14.1-17.44-27.7,2.44-14.1,13.11-19.78,26.4-23.47,33.81-9.4,66.77-22.6,101-29.4,29.65-5.88,59.51-12.58,90.14-13.72,16.84-.63,33.63-3.64,50.34-6.23,18.94-2.94,33.15,4.68,35.64,19.93,2.13,13-10.49,28.33-27.22,30.87-19.57,3-39.36,4.53-59.08,6.54A639,639,0,0,0,809,1472.27c-26.72,6.58-53.14,14-79.29,22.5-4.19,1.37-8.24,2.66-11.82,5.23Z"/><path class="cls-1" d="M509.08,772.72c-6.94,37.73-16.9,74-50.25,98.69-19.94,14.74-60.31,13.53-79.48-2.46-24.56-20.48-41.86-44.81-46-77.72-3.5-27.72,1.2-56.42,15.42-76.93,34-49,87.41-49.31,128.9-7.28a123.18,123.18,0,0,1,23.26,33.22C505.86,750.54,510,760.63,509.08,772.72Z"/><path class="cls-1" d="M942.84,1143.72c3.49,27.87-12.45,45.33-30.79,61.34-26.14,22.82-52.78,45.08-78.73,68.12-13.7,12.15-52.31,19.72-69.21,12.43-8.82-3.81-12.25-10.92-11.33-19.93.94-9.26,7-17.44,15.66-16.26,29.68,4.07,47.41-14.32,66.59-31.49,19.76-17.67,40.45-34.3,60.51-51.64,9.73-8.41,10.58-18.87,5.78-30.41a70.44,70.44,0,0,0-18.86-25.57c-38.29-33.33-58.78-78.89-84.55-120.7C779.61,959.9,770,926,756.3,894c-4.57-10.66-10.11-20.87-14.31-31.7-2.11-5.44-6.38-9.08-13.15-10-12.07-1.59-17.23-9.76-17.3-21.46,0-8.26-.24-16.54.22-24.77.46-8.48,4.64-14.85,13-17.48,8.77-2.76,16,0,22.23,6.67,20.21,21.6,30.86,48.64,42,75.15,20.74,49.5,39.45,99.87,69.64,144.85A704.84,704.84,0,0,0,920,1093.52C932.49,1107.45,948,1121.85,942.84,1143.72Z"/><path class="cls-1" d="M970,776.87c-58.63.67-76.3-22.83-87.78-73.84-3.87-17.2,4.14-36.27,12.74-52.65,3.31-6.33,8-12,10.3-19,2.2-6.64,6.4-12.69,12.78-15.28,48.68-19.76,112.57-18.18,128.54,50.75,10.08,43.54-11.22,91.11-57.4,108.41C982.55,777.74,975.69,77C6.49,970,776.87Z"/></g></g></svg>