<svg width="512" height="512" viewBox="0 0 512 512" fill="none" xmlns="http://www.w3.org/2000/svg">
<g clip-path="url(#clip0)">
<path d="M270.157 506.134C270.163 506.128 270.17 506.123 270.176 506.116L374.176 401.612C381.967 393.783 381.938 381.12 374.108 373.327C366.279 365.535 353.616 365.565 345.824 373.394L276 443.558L276 20C276 8.954 267.046 -4.93737e-06 256 -5.42021e-06C244.954 -5.90305e-06 236 8.95399 236 20L236 443.557L166.176 373.395C158.384 365.566 145.721 365.536 137.892 373.328C130.061 381.121 130.034 393.785 137.824 401.613L241.824 506.117C241.83 506.123 241.837 506.128 241.843 506.135C249.661 513.968 262.365 513.943 270.157 506.134Z" fill="#0054FF"/>
</g>
<defs>
<clipPath id="clip0">
<rect width="512" height="512" fill="white"/>
</clipPath>
</defs>
</svg>
