<svg xmlns="http://www.w3.org/2000/svg" viewBox="0 0 162.05 112.18"><defs><style>.cls-1{fill:#6ae2c6;}</style></defs><g id="Layer_2" data-name="Layer 2"><g id="Text"><path class="cls-1" d="M137.12,62.32V74.79h12.46V62.32Zm12.46-12.46V62.32h12.47V49.86Z"/><polygon class="cls-1" points="124.65 49.86 124.65 74.79 137.12 74.79 137.12 87.25 112.19 87.25 112.19 99.72 99.72 99.72 99.72 112.18 62.33 112.18 62.33 99.72 49.87 99.72 49.87 87.25 24.94 87.25 24.94 74.79 12.47 74.79 12.47 62.32 0 62.32 0 49.86 24.94 49.86 24.94 62.32 37.4 62.32 37.4 37.4 49.87 37.4 49.87 24.93 62.33 24.93 62.33 12.47 74.79 12.47 74.79 0 87.26 0 87.26 12.47 99.72 12.47 99.72 24.93 112.19 24.93 112.19 37.4 149.58 37.4 149.58 49.86 124.65 49.86"/></g></g></svg>