<svg xmlns="http://www.w3.org/2000/svg" viewBox="0 0 500.24 160.03"><defs><style>.cls-1{fill:#0060a9;}.cls-1,.cls-3{fill-rule:evenodd;}.cls-2,.cls-3{fill:#00b066;}</style></defs><g id="Layer_2" data-name="Layer 2"><g id="Layer_1-2" data-name="Layer 1"><path class="cls-1" d="M72.32,26.23a56.38,56.38,0,0,0-7-.33,42.64,42.64,0,0,0-7,.33h0l-.23-3.39,3.15-.33L60.23,5.4H55.56V.72h0S56.35,0,65.36,0s9.81.72,9.81.72h0V5.4H70.5L69.4,22.51l3.15.33-.23,3.39Z"/><path class="cls-1" d="M56.51,26.71s-2.29.65-6.48,2.34a48,48,0,0,0-6.32,3.07h0l-1.5-3.07L45,27.6,37.54,12.18,33.2,14,31.46,9.68h0s.55-1,8.85-4.52S49.64,2,49.64,2h0l1.74,4.36L47,8.15l5.45,16.3,3-1.05,1,3.31Z"/><path class="cls-1" d="M42.13,33.33A59,59,0,0,0,37,38a48.82,48.82,0,0,0-4.66,5.33h0L29.8,41.08l2.05-2.5L19.21,27.27l-3.33,3.4-3.23-3.31h0s.08-1.13,6.48-7.59,7.43-6.62,7.43-6.62h0l3.24,3.31-3.32,3.39L37.54,32.77,40,30.67l2.13,2.66Z"/><path class="cls-1" d="M31.38,45a51.27,51.27,0,0,0-3,6.37A45.27,45.27,0,0,0,26,58h0L22.84,57l.95-3.15L7.9,48.34,6.09,52.78,1.82,51h0S1.5,50,5,41.4s4.35-9,4.35-9h0l4.27,1.78-1.74,4.44,15,7.58,1.51-2.9,3,1.61Z"/><path class="cls-1" d="M25.69,59.88a69.62,69.62,0,0,0-.4,7.1,48.56,48.56,0,0,0,.4,7.1h0l-3.32.25-.32-3.23L5.3,72.23V77H.71S0,76.18,0,67,.71,56.89.71,56.89H5.3v4.85l16.75,1.12.32-3.22,3.32.24Z"/><path class="cls-1" d="M26.08,75.94a47.27,47.27,0,0,0,2.3,6.54,38,38,0,0,0,3,6.45h0l-3,1.54-1.51-2.83-15,7.59,1.74,4.36-4.27,1.85h0s-.87-.57-4.35-9-3.16-9.52-3.16-9.52h0L6.09,81.1,7.9,85.54l15.89-5.48L22.84,77l3.24-1Z"/><path class="cls-1" d="M32.4,90.55A69.9,69.9,0,0,0,37,95.87a41.12,41.12,0,0,0,5.22,4.68h0L40,103.22l-2.46-2.1L26.48,114l3.32,3.39-3.24,3.31h0s-1.11-.08-7.43-6.62-6.48-7.58-6.48-7.58h0l3.23-3.31,3.33,3.39,12.64-11.3-2.05-2.5,2.6-2.26Z"/><path class="cls-1" d="M43.79,101.76a52.62,52.62,0,0,0,6.16,3,44.22,44.22,0,0,0,6.64,2.42h0l-1.11,3.23-3-1-5.37,16.22,4.34,1.86-1.81,4.36h0s-1,.32-9.33-3.23-8.77-4.44-8.77-4.44h0l1.73-4.36,4.35,1.86,7.43-15.42-2.84-1.53,1.58-3Z"/><path class="cls-1" d="M58.49,107.58a63.69,63.69,0,0,0,6.87.4,35.86,35.86,0,0,0,7-.4h0l.32,3.47-3.24.24,1.1,17.11h4.75v4.76h0s-.87.64-9.89.64-9.8-.64-9.8-.64h0V128.4h4.67l1.1-17.11-3.15-.24.31-3.47Z"/><path class="cls-1" d="M74.29,107.25a50.09,50.09,0,0,0,6.57-2.34,41,41,0,0,0,6.24-3.07h0l1.58,3.07-2.84,1.46,7.43,15.41,4.34-1.86,1.74,4.36h0s-.47,1-8.85,4.52S81.17,132,81.17,132h0l-1.74-4.36,4.35-1.78-5.37-16.3-3.09,1-1-3.31Z"/><path class="cls-1" d="M88.84,100.71A59.59,59.59,0,0,0,94,96a48.82,48.82,0,0,0,4.66-5.33h0L101.17,93l-2.06,2.5,12.65,11.3,3.32-3.39,3.25,3.31h0s-.09,1.13-6.49,7.59-7.43,6.61-7.43,6.61h0l-3.24-3.31,3.32-3.39L93.43,101.28,91,103.38l-2.13-2.67Z"/><path class="cls-1" d="M99.75,89s1.18-2.09,3-6.37A36,36,0,0,0,105,76h0l3.25,1-1,3.07,15.89,5.48L125,81.18,129.23,83h0s.32,1.05-3.08,9.52-4.43,9-4.43,9h0l-4.27-1.77,1.82-4.44-15-7.59-1.5,2.91-3-1.62Z"/><path class="cls-1" d="M105.44,74s.31-2.42.4-7.1a48.56,48.56,0,0,0-.4-7.1h0l3.32-.24.31,3.23,16.76-1.13V56.89h4.58s.72.81.72,10-.72,10-.72,10h-4.58V72.14L109.07,71l-.31,3.23L105.44,74Z"/><path class="cls-1" d="M105,57.78s-.63-2.34-2.29-6.62a49.78,49.78,0,0,0-3-6.45h0l3-1.54,1.42,2.91,15.1-7.59-1.82-4.43,4.27-1.86h0s1,.57,4.35,9,3.16,9.52,3.16,9.52h0L125,52.53l-1.82-4.43-15.88,5.56.95,3.07L105,57.78Z"/><path class="cls-1" d="M98.48,43.09a67.83,67.83,0,0,0-4.58-5.32,45.54,45.54,0,0,0-5.14-4.68h0l2.14-2.67,2.44,2.1,11.07-12.91-3.32-3.39,3.24-3.31h0s1.11.08,7.43,6.62,6.48,7.59,6.48,7.59h0L115,30.42,111.68,27,99,38.33l2,2.5-2.61,2.26Z"/><path class="cls-1" d="M87,32a68.82,68.82,0,0,0-6.25-3.07,36.72,36.72,0,0,0-6.56-2.34h0l1-3.23,3.08,1L83.7,8.07,79.35,6.21l1.74-4.35h0s1-.33,9.33,3.22,8.86,4.44,8.86,4.44h0l-1.74,4.36L93.19,12,85.76,27.44l2.77,1.45L87,32Z"/><path class="cls-1" d="M47.58,49.71a30.81,30.81,0,0,0-2.53,3.47,22.55,22.55,0,0,0-2.13,3.71h0l-1.82-1,.95-1.7L33.12,48.9l-1.58,2.42-2.37-1.61h0s0-.64,3-5.32,3.72-4.85,3.72-4.85h0l2.29,1.62-1.59,2.42L44.74,50,46,48.42l1.58,1.29Z"/><path class="cls-1" d="M42.44,58a36.05,36.05,0,0,0-1,4.19,25.13,25.13,0,0,0-.55,4.28h0l-2-.25L39,64.32,28.85,63l-.55,2.9-2.77-.56h0s-.32-.65.71-6.14,1.58-5.89,1.58-5.89h0l2.77.49L30,56.65,40,59.4l.47-1.94,2,.57Z"/><path class="cls-1" d="M40.86,67.71A34.41,34.41,0,0,0,41.5,72a22.29,22.29,0,0,0,1,4.2h0l-2,.57L40,74.89l-9.88,2.66.55,2.83-2.77.56h0s-.47-.4-1.58-5.81c-1.11-5.57-.79-6.13-.79-6.13h0l2.77-.57.55,2.91L39,70l-.23-2,2-.24Z"/><path class="cls-1" d="M43,77.31a40.75,40.75,0,0,0,2.13,3.63,33.36,33.36,0,0,0,2.61,3.47h0l-1.66,1.3L44.9,84.17l-8.15,6.38L38.34,93,36,94.58h0s-.63-.16-3.71-4.84-3-5.33-3-5.33h0l2.37-1.61,1.58,2.42,8.86-5.16-1-1.78,1.82-1Z"/><path class="cls-1" d="M48.53,85.22s1.11,1,3.4,2.58A21.56,21.56,0,0,0,55.56,90h0l-.94,1.86-1.74-1L47.74,100l2.45,1.61L48.61,104h0s-.63.08-5.22-3.06-4.82-3.8-4.82-3.8h0l1.58-2.34,2.37,1.62,6.25-8.32-1.5-1.29,1.26-1.61Z"/><path class="cls-1" d="M56.67,90.47a34.51,34.51,0,0,0,4.11,1,20.22,20.22,0,0,0,4.19.64h0l-.24,2.1-2-.24-1.27,10.41,2.77.56-.56,2.83h0s-.55.32-5.92-.81-5.85-1.61-5.85-1.61h0l.55-2.83,2.85.57,2.6-10.09-1.81-.57.55-2Z"/><path class="cls-1" d="M66.16,92.16a39.66,39.66,0,0,0,4.18-.57,24.3,24.3,0,0,0,4.11-1.12h0l.56,2-1.9.57,2.69,10.17,2.85-.57.55,2.75h0s-.48.56-5.85,1.61-5.93.81-5.93.81h0L66.87,105l2.76-.56L68.29,94l-1.9.24-.23-2.1Z"/><path class="cls-1" d="M75.56,90.06s1.27-.64,3.64-2.18a23.77,23.77,0,0,0,3.39-2.66h0l1.27,1.7-1.5,1.2,6.24,8.32L91,94.82l1.58,2.34h0s-.15.65-4.74,3.8S82.59,104,82.59,104h0L81,101.6,83.39,100l-5.14-9-1.74,1-1-1.86Z"/><path class="cls-1" d="M83.46,84.41s1-1.13,2.54-3.47a21.42,21.42,0,0,0,2.13-3.63h0l1.82,1-1,1.78,8.93,5.16,1.58-2.42,2.37,1.53h0s0,.73-3,5.33-3.72,4.92-3.72,4.92h0L92.87,93l1.58-2.42-8.14-6.38-1.26,1.54-1.59-1.3Z"/><path class="cls-1" d="M88.68,76.18a39.45,39.45,0,0,0,1-4.2,35,35,0,0,0,.63-4.35h0l2,.24-.16,2,10.19,1.37.56-2.91,2.77.57h0s.23.56-.79,6.13c-1.11,5.41-1.59,5.81-1.59,5.81h0l-2.76-.56.55-2.75-9.88-2.74-.55,1.94-2-.57Z"/><path class="cls-1" d="M90.34,66.42a35.21,35.21,0,0,0-.63-4.28,22,22,0,0,0-1-4.2h0l2-.56.55,1.85,9.88-2.66-.55-2.91,2.76-.56h0s.48.4,1.59,5.89.79,6.13.79,6.13h0l-2.77.57-.56-2.9L92.16,64.16l.24,2-2.06.25Z"/><path class="cls-1" d="M88.21,56.73s-.64-1.29-2.13-3.71a25.08,25.08,0,0,0-2.62-3.47h0l1.67-1.29,1.18,1.53,8.14-6.38L92.87,41l2.37-1.62h0s.64.16,3.64,4.84,3,5.33,3,5.33h0l-2.29,1.61-1.66-2.42L89.07,54l1,1.69-1.82,1Z"/><path class="cls-1" d="M82.59,48.66s-1.1-1-3.39-2.58a22.25,22.25,0,0,0-3.64-2.18h0l1-1.86,1.66,1,5.14-9.12L81,32.28l1.57-2.42h0s.64,0,5.22,3.06,4.74,3.8,4.74,3.8h0L91,39.06,88.6,37.44l-6.24,8.32,1.5,1.29-1.27,1.61Z"/><path class="cls-1" d="M74.38,43.41s-1.35-.48-4-1.12a23.56,23.56,0,0,0-4.26-.57h0l.23-2.1,2,.24,1.34-10.41-2.84-.56.55-2.82h0s.56-.33,5.93.8,5.85,1.54,5.85,1.54h0l-.55,2.82-2.85-.56L73.11,40.83l1.82.57-.55,2Z"/><path class="cls-1" d="M64.89,41.8a37.14,37.14,0,0,0-4.19.57,23.55,23.55,0,0,0-4.11,1.13h0l-.63-2,1.9-.56L55.17,30.75l-2.76.56-.56-2.82h0s.4-.49,5.77-1.62,6-.72,6-.72h0L64.18,29l-2.85.57,1.35,10.32,2-.16.23,2.1Z"/><path class="cls-1" d="M55.41,44s-1.27.65-3.64,2.18a33.23,33.23,0,0,0-3.4,2.66h0l-1.26-1.69,1.5-1.21L42.37,37.6,40,39.22,38.41,36.8h0s.24-.57,4.74-3.71S48.45,30,48.45,30h0L50,32.44l-2.37,1.62,5.14,9,1.74-1L55.41,44Z"/><path class="cls-1" d="M52.64,58.83a13.93,13.93,0,0,0-1.11,2.34,12.14,12.14,0,0,0-.86,2.5h0l-1.19-.4.31-1.13-5.92-2-.72,1.62-1.58-.65h0s-.07-.4,1.19-3.55,1.66-3.39,1.66-3.39h0L46,54.8l-.71,1.69L51,59.32l.55-1.14,1.11.65Z"/><path class="cls-1" d="M50.51,64.48s-.08.89-.08,2.58a9.58,9.58,0,0,0,.16,2.66h0l-1.27.17-.16-1.3-6.24.49v1.77H41.18s-.24-.32-.24-3.71.24-3.79.24-3.79h1.74v1.77l6.24.41.08-1.21,1.27.16Z"/><path class="cls-1" d="M50.74,70.45a12.48,12.48,0,0,0,.87,2.5,20,20,0,0,0,1.11,2.43h0l-1.11.56-.55-1-5.69,2.83.71,1.61-1.58.73h0s-.4-.25-1.66-3.39-1.18-3.55-1.18-3.55h0l1.58-.73.7,1.69L49.88,72l-.4-1.13,1.26-.4Z"/><path class="cls-1" d="M53.11,75.94a24.54,24.54,0,0,0,1.74,1.94,10.6,10.6,0,0,0,2,1.77h0l-.87,1-.87-.73L50.9,84.66l1.26,1.21L51,87.15h0s-.39-.07-2.84-2.49-2.37-2.83-2.37-2.83h0L47,80.62l1.26,1.21L53,77.72l-.8-1,1-.81Z"/><path class="cls-1" d="M57.38,80.06s.8.4,2.38,1a12,12,0,0,0,2.44.9h0l-.39,1.2-1.19-.32-2,6.05,1.66.73-.71,1.61h0s-.4.08-3.48-1.21-3.32-1.69-3.32-1.69h0l.71-1.62,1.58.73,2.77-5.81-1-.57.55-1Z"/><path class="cls-1" d="M62.83,82.15a16.55,16.55,0,0,0,2.61.17,15.2,15.2,0,0,0,2.61-.17h0l.08,1.3L67,83.52,67.42,90l1.74-.08v1.78h0s-.32.32-3.72.32-3.63-.32-3.63-.32h0V90h1.74l.39-6.46-1.18-.07.07-1.3Z"/><path class="cls-1" d="M68.77,82a12.28,12.28,0,0,0,2.44-.9c1.59-.64,2.37-1,2.37-1h0l.56,1-1,.57,2.77,5.81,1.58-.73.71,1.62h0s-.24.4-3.32,1.69-3.48,1.21-3.48,1.21h0l-.71-1.61,1.66-.73-2-6.05-1.11.4L68.77,82Z"/><path class="cls-1" d="M74.14,79.65s.71-.56,2-1.77a22.81,22.81,0,0,0,1.73-1.94h0l1,.81-.79,1,4.74,4.11L84,80.54l1.18,1.29h0s0,.4-2.37,2.83-2.77,2.49-2.77,2.49h0L78.8,85.87l1.26-1.3-4.18-4.68-.87.65-.87-.89Z"/><path class="cls-1" d="M78.25,75.3A21,21,0,0,0,79.35,73a12,12,0,0,0,.87-2.58h0l1.19.41L81.09,72,87,74l.7-1.61,1.59.64h0s.07.41-1.19,3.56S86.47,80,86.47,80h0l-1.58-.65.71-1.69-5.69-2.83-.56,1-1.1-.56Z"/><path class="cls-1" d="M80.38,69.65a16.3,16.3,0,0,0,.16-2.59,16.8,16.8,0,0,0-.16-2.66h0l1.27-.16.07,1.21L88.05,65V63.27h1.74S90,63.59,90,67s-.24,3.8-.24,3.8H88.05V69l-6.33-.49-.07,1.21-1.27-.07Z"/><path class="cls-1" d="M80.31,63.59s-.25-.88-.88-2.5a18.83,18.83,0,0,0-1.18-2.34h0l1.18-.64L80,59.23l5.61-2.9-.71-1.61L86.47,54h0s.39.24,1.66,3.39,1.19,3.55,1.19,3.55h0l-1.59.73L87,60l-5.94,2.1.4,1.13-1.18.4Z"/><path class="cls-1" d="M77.85,58s-.55-.65-1.73-1.94a24.79,24.79,0,0,0-1.9-1.78h0l.79-1,.87.81,4.18-4.84L78.8,48,80,46.81h0s.39,0,2.84,2.42,2.37,2.82,2.37,2.82h0L84,53.34l-1.27-1.29L78,56.33l.79.89-1,.81Z"/><path class="cls-1" d="M73.51,53.91a14,14,0,0,0-2.3-1.13,11.71,11.71,0,0,0-2.44-.89h0l.39-1.21,1.11.32,2-6-1.58-.73.63-1.61h0s.4-.08,3.48,1.21,3.32,1.69,3.32,1.69h0l-.63,1.62L75.8,46.4,73,52.21l1.11.57-.63,1.13Z"/><path class="cls-1" d="M68,51.73s-.87-.08-2.53-.16a16.13,16.13,0,0,0-2.61.16h0l-.15-1.29,1.18-.08L63.47,44H61.73V42.21h0s.32-.25,3.63-.25,3.72.25,3.72.25h0V43.9L67.34,44l-.47,6.38,1.26.08L68,51.73Z"/><path class="cls-1" d="M62.05,51.89a23.05,23.05,0,0,0-2.45.89A17.18,17.18,0,0,0,57.3,54h0l-.63-1.13,1.11-.57-2.85-5.81-1.58.73-.63-1.62h0s.16-.4,3.24-1.69,3.48-1.21,3.48-1.21h0l.71,1.62L58.49,45l2,6,1.11-.4.4,1.21Z"/><path class="cls-1" d="M56.67,54.39a23.86,23.86,0,0,0-1.89,1.78,10.66,10.66,0,0,0-1.74,2h0l-1-.88.79-.89-4.75-4.2-1.18,1.22-1.26-1.22h0s.07-.4,2.44-2.82,2.77-2.5,2.77-2.5h0L52,48.1l-1.19,1.29,4.11,4.84,1-.8.79,1Z"/><rect class="cls-2" x="1.11" y="150.51" width="499.13" height="9.52"/><path class="cls-1" d="M442.54,49.55H440c-.63,1.86-.94,2.1-2.37,2.1-3.56,0-8.14-2.91-17.86-2.91-14.86,0-24.9,8-24.9,19.69,0,6,2.21,11.3,7.75,15.9,10.27,8.56,34.85,14.69,34.85,27.84,0,8.24-7.35,13.57-18.41,13.57-8,0-21.82-4.61-22-18.73h-2.76v20.58h2.76c.8-1.94,1.9-2.91,3.48-2.91,3.09,0,11.22,4,20.95,4,14.31,0,26-9.76,26-21.71,0-5.09-1.58-9.85-8-15.17-13.12-11-36.36-14.61-36.36-28.73,0-7,6.8-11.46,16.36-11.46,9.33,0,18.9,4.44,20.31,15.74h2.69V49.55Z"/><path class="cls-1" d="M185.27,65.29c0-9.28,2.61-12.19,9.88-12.19h0V50.76H163.93V53.1h0c7.43,0,9.88,2.5,9.88,12.19h0v47.77h0c0,9.85-2.77,12.27-9.88,12.27h0v2.26h31.22v-2.26h0c-7.27,0-9.88-2.82-9.88-12.27h0V65.29Z"/><path class="cls-1" d="M287.07,71.42,287,53.5h-2.92a3,3,0,0,1-2.29.73c-3.95,0-10.83-4.92-26.8-4.92-26.4,0-45.45,17.27-45.45,41.16,0,22.92,18.5,39.46,44.18,39.46,15,0,24.27-4.68,32.34-3.55.15,0,4.34-17.59,4.42-17.84H288.1c-8.62,14.93-21,18.32-31,18.32-19.21,0-35.65-16.46-35.65-38.81,0-20.75,13.2-35.68,34.3-35.68,13.83,0,24.74,7.51,28.93,19.05h2.37Z"/><path class="cls-1" d="M365.08,79.57h-2.6C361.29,86.11,359,87,353.07,87H328.88V54.23h25c9.56,0,12.57.65,14.54,9.12h1.66V50.44H307.54v2.34h0c7.44,0,9.81,2.66,9.81,12.18h0V112.9h0c0,10.17-3,12.11-9.81,12.11h0v2.26h62.52L374,112.9h-2.6c-5.14,10.09-8.3,10.57-21,10.57H335.21c-4.83,0-6.33-1.45-6.33-5.16h0V90.79h21.5c8.93,0,10.28.8,12.1,7.34h2.6V79.57Z"/><path class="cls-1" d="M489.1,65c0-9.28,2.6-12.18,9.87-12.18h0V50.44H467.75v2.34h0c7.44,0,9.88,2.5,9.88,12.18h0v47.78h0c0,9.85-2.76,12.27-9.88,12.27h0v2.26H499V125h0c-7.27,0-9.87-2.83-9.87-12.27h0V65Z"/><path class="cls-3" d="M163.22,6.86h3.08V19h0a12.52,12.52,0,0,0,.23,2.83,3.23,3.23,0,0,0,.8,1.45,5.61,5.61,0,0,0,2.29,1.61,7,7,0,0,0,3,.57,7.41,7.41,0,0,0,4.59-1.37,4.58,4.58,0,0,0,1.73-3.8h0V6.86H182V20.42h0a7,7,0,0,1-2.61,5.65,10.16,10.16,0,0,1-6.8,2.17,11.56,11.56,0,0,1-4.5-.8,7.9,7.9,0,0,1-3.32-2.5,5.22,5.22,0,0,1-1.27-2.18,14.92,14.92,0,0,1-.31-3.72h0V6.86Z"/><polygon class="cls-3" points="199.73 27.84 199.73 6.86 202.5 6.86 216.88 23.16 216.88 6.86 219.97 6.86 219.97 27.84 217.2 27.84 202.89 11.54 202.89 27.84 199.73 27.84 199.73 27.84"/><polygon class="cls-3" points="238.86 27.84 238.86 6.86 241.94 6.86 241.94 27.84 238.86 27.84 238.86 27.84"/><polygon class="cls-3" points="267.07 28 257.51 6.86 260.75 6.86 267.55 21.87 274.5 6.86 277.75 6.86 267.94 28 267.07 28 267.07 28"/><polygon class="cls-3" points="293.71 27.84 293.71 6.86 306.83 6.86 306.83 9.52 296.79 9.52 296.79 15.9 306.6 15.9 306.6 18.64 296.79 18.64 296.79 25.18 307.15 25.18 307.15 27.84 293.71 27.84 293.71 27.84"/><path class="cls-3" d="M325.33,27.84v-21h6.4a7.57,7.57,0,0,1,5.14,1.53,5.11,5.11,0,0,1,1.81,4.2,5.25,5.25,0,0,1-1,3.39,5.87,5.87,0,0,1-3.08,1.85,4.75,4.75,0,0,1,1,.81,10.42,10.42,0,0,1,1.27,1.53h0l5.29,7.67h-3.79l-3.72-5.49h0a12.53,12.53,0,0,0-2.76-3.14,4.17,4.17,0,0,0-2.45-.73h-.95v9.36ZM328.49,16h2.61a5.88,5.88,0,0,0,3.24-.81,3,3,0,0,0,1.1-2.5,2.94,2.94,0,0,0-1-2.5,5.94,5.94,0,0,0-3.32-.73h-2.61V16Z"/><path class="cls-3" d="M357.34,26.23v-4h0a11.23,11.23,0,0,0,2.84,2.34,6.23,6.23,0,0,0,2.93.73,4.06,4.06,0,0,0,2.53-.73,2.31,2.31,0,0,0,.94-1.93,3,3,0,0,0-.63-1.86,13.86,13.86,0,0,0-3-2.18,20.43,20.43,0,0,1-4.66-3.55,5,5,0,0,1-1-3.07,5.06,5.06,0,0,1,1.81-3.95,6.86,6.86,0,0,1,4.67-1.61,8.72,8.72,0,0,1,2.45.4,8.25,8.25,0,0,1,2.53,1h0V11.3h0a14.92,14.92,0,0,0-2.69-1.62,6.67,6.67,0,0,0-2.45-.48,3.8,3.8,0,0,0-2.37.72,2.05,2.05,0,0,0-1,1.78c0,1.05,1.27,2.34,3.87,3.87h0l.48.25h0a15.77,15.77,0,0,1,4.11,3.3,6.45,6.45,0,0,1,.95,3.56,5.24,5.24,0,0,1-1.82,4,6.82,6.82,0,0,1-4.67,1.53,9.75,9.75,0,0,1-3.16-.48,8.61,8.61,0,0,1-2.76-1.53Z"/><polygon class="cls-3" points="386.98 27.84 386.98 6.86 390.06 6.86 390.06 27.84 386.98 27.84 386.98 27.84"/><path class="cls-3" d="M416.93,9.68H412V25h4.89a9.28,9.28,0,0,0,6.4-2,7,7,0,0,0,2.3-5.65,7,7,0,0,0-2.3-5.57,9.3,9.3,0,0,0-6.4-2.1Zm0-2.82a20.67,20.67,0,0,1,4.19.4,14.81,14.81,0,0,1,3.24,1.37,10.69,10.69,0,0,1,3.4,3.72,10.81,10.81,0,0,1,1.19,5,10.58,10.58,0,0,1-1.19,5,10,10,0,0,1-3.4,3.72,10.8,10.8,0,0,1-3.24,1.37,16.18,16.18,0,0,1-4.19.4h-8v-21Z"/><path class="cls-3" d="M449.26,19h6.8l-3.4-7.58L449.26,19Zm-7.19,8.88,9.48-21h2.29l9.57,21h-3.24l-2.77-6.13h-9.32l-2.85,6.13Z"/><path class="cls-3" d="M487.67,9.68h-5V25h5A9,9,0,0,0,494,23a7,7,0,0,0,2.38-5.65A7,7,0,0,0,494,11.78a9.07,9.07,0,0,0-6.32-2.1Zm0-2.82a19.84,19.84,0,0,1,4.11.4A13,13,0,0,1,495,8.63a10.47,10.47,0,0,1,4.67,8.72,9.77,9.77,0,0,1-1.27,5,9.49,9.49,0,0,1-3.4,3.72,11,11,0,0,1-3.16,1.37,16.56,16.56,0,0,1-4.19.4h-8.05v-21Z"/></g></g></svg>